<svg xmlns="http://www.w3.org/2000/svg" viewBox="0 0 100 100" width="192" height="192">
    <rect width="100" height="100" rx="6" ry="6" fill="#528ff9" fill-rule="evenodd"/>
    <g stroke-width=".181">
        <path d="M-147.52 77.658c-1.4-15.301 20.968-15.501 20.101-.2" fill="none" stroke="#fff" transform="matrix(2.88049 0 0 2.87176 446.514 -169.402)"/>
        <path d="M47.596 44.49c-1.454 5.398-5.345 6.16-10.799 7.398-8.533 1.27-14.116 3.329-16.5 5.334-.234.247-.023.706-.092.977.002.467.212.933.627 1.39 4.195 12.1 15.596 20.24 28.437 20.302 13 .058 24.582-8.173 28.769-20.442.376-.523.493-.957.474-1.507.008-.03.02-.06.029-.09h-.042l-.002-.008.044.008c-.018-.01.729-1.68.713-1.69-3.714-3.39-7.594-3.687-19.805-4.36l-.383-.131c-3.578-1.063-5.89-2.595-7.051-6.912-.54 2.103.464 5.6 2.705 6.772 2.52 2.851 4.608 6.714 3.976 11.269-1.417 4.176-2.457 7.28-9.094 7.59-6.427-1.577-8.048-2.909-9.027-7.388-.02-4.82.352-7.444 4.15-11.498 2.266-2.448 2.337-4.444 2.87-7.015z" fill="#fff"/>
        <g fill="#fff">
            <path d="M42.843 35.736c4.967 1.307 4.715 3.315 5.254 4.299.347.632-.76.154-.943.235-5.054.66-8.913-2.044-9.902-6.615 2.932-1.738 6.007-2.16 9.33.335 1.84 1.718 2.67 4.148 2.088 6.045-.686-2.211-1.977-4.53-5.827-4.299zM56.986 35.607c-4.967 1.307-4.715 3.315-5.254 4.298.915.596 3.756.235 5.321.235 4.316-1.382 4.983-4.078 5.524-6.615-2.932-1.738-6.008-2.159-9.33.336-1.841 1.718-2.67 4.148-2.088 6.044.686-2.21 1.976-4.528 5.827-4.298zM50.044 27.91c-.29 1.682-.211 3.788-.236 5.91-1.378-.078-2.713-.875-2.762-5.204-.079-2.848.632-3.754 2.796-5.104 1.988.895 3.064 1.557 3.536 5.104-1.336 6.691-2.222 4.722-2.964 5.272.002-2.472-.105-4.216-.37-5.977z"/>
        </g>
    </g>
</svg>
