<svg width="25mm" height="25mm" version="1.1" viewBox="0 0 25 25" xml:space="preserve" xmlns="http://www.w3.org/2000/svg"><g transform="translate(119.74 -50.615)"><g transform="translate(30.25 -13.08)"><path d="m-147.52 77.658c-1.4001-15.301 20.968-15.501 20.101-0.20001" fill="none" stroke="#fff"/><path d="m-138.49 74.481c-0.50447 1.8798-1.8553 2.1452-3.7487 2.5763-2.9624 0.44191-4.9006 1.1591-5.7285 1.8573-0.081 0.08615-8e-3 0.24597-0.0318 0.34029 8.3e-4 0.16272 0.0737 0.32498 0.21755 0.48421 1.4564 4.2132 5.4145 7.0475 9.8723 7.0693 4.513 0.02016 8.5341-2.8458 9.9875-7.1184 0.13061-0.1821 0.17137-0.33301 0.16464-0.52452 3e-3 -0.0105 7e-3 -0.02101 0.01-0.03152h-0.0145c-1.9e-4 -8.48e-4 -3.3e-4 -0.0017-5.2e-4 -0.0026 5e-3 9.16e-4 0.01 0.0017 0.015 0.0026-6e-3 -0.0032 0.25318-0.58488 0.24758-0.58808-1.2894-1.1807-2.6364-1.2842-6.8756-1.5188-1.7e-4 -9e-6 -0.13261-0.04546-0.13281-0.04547-1.2423-0.37019-2.0446-0.90354-2.4479-2.4066-0.18737 0.73204 0.16117 1.9498 0.93896 2.358 0.87522 0.9929 1.6 2.3378 1.3805 3.924-0.49203 1.4543-0.85315 2.5348-3.1572 2.643-2.2312-0.54909-2.794-1.0128-3.1336-2.5725-7e-3 -1.6782 0.12198-2.5923 1.4407-4.0039 0.78649-0.85238 0.81119-1.5475 0.99644-2.4427z" fill="#fff" stroke-width=".3"/><g fill="#fff"><path d="m-140.14 71.433c1.7245 0.45496 1.6368 1.1542 1.8241 1.4967 0.12048 0.22028-0.26379 0.05391-0.32735 0.08189-1.7546 0.23023-3.0942-0.71149-3.4378-2.3035 1.018-0.60516 2.0856-0.75185 3.239 0.11693 0.63916 0.59808 0.92718 1.4443 0.72497 2.1047-0.23817-0.76975-0.68617-1.577-2.0229-1.4967z"/><path d="m-135.23 71.388c-1.7245 0.45496-1.6368 1.1542-1.8241 1.4967 0.3179 0.20754 1.304 0.08189 1.8474 0.08189 1.4984-0.48145 1.73-1.4202 1.9177-2.3035-1.018-0.60516-2.0856-0.75185-3.239 0.11693-0.63916 0.59808-0.92718 1.4443-0.72497 2.1047 0.23817-0.76975 0.68617-1.577 2.0229-1.4967z"/><path d="m-137.64 68.708c-0.10081 0.58555-0.0733 1.3187-0.0819 2.058-0.4784-0.0276-0.9418-0.30514-0.95882-1.8124-0.0275-0.99173 0.21919-1.3071 0.97052-1.7773 0.69021 0.3115 1.0638 0.54209 1.2278 1.7773-0.46382 2.3299-0.77167 1.6444-1.029 1.8358 7e-4 -0.86066-0.0365-1.4682-0.12862-2.0814z"/></g></g></g></svg>
