<?xml version="1.0" standalone="no"?>
<!DOCTYPE svg PUBLIC "-//W3C//DTD SVG 20010904//EN"
 "http://www.w3.org/TR/2001/REC-SVG-20010904/DTD/svg10.dtd">
<svg version="1.0" xmlns="http://www.w3.org/2000/svg"
 width="700.000000pt" height="700.000000pt" viewBox="0 0 700.000000 700.000000"
 preserveAspectRatio="xMidYMid meet">
<metadata>
Created by potrace 1.14, written by Peter Selinger 2001-2017
</metadata>
<g transform="translate(0.000000,700.000000) scale(0.100000,-0.100000)"
fill="#000000" stroke="none">
<path d="M3249 6466 c-2 -2 -44 -7 -94 -11 -49 -4 -93 -9 -96 -11 -3 -2 -30
-6 -60 -9 -182 -20 -508 -110 -715 -196 -647 -269 -1134 -722 -1440 -1339 -86
-175 -186 -454 -219 -615 -3 -11 -11 -51 -19 -90 -20 -91 -34 -175 -42 -250
-3 -33 -8 -62 -9 -65 -15 -25 -24 -569 -12 -680 2 -19 5 -54 6 -78 l1 -44 88
8 c123 10 134 11 165 13 l28 1 -7 88 c-13 167 -7 580 10 669 2 10 7 46 11 78
4 33 13 90 21 127 7 37 16 82 19 100 23 131 104 381 176 543 263 589 755 1052
1374 1293 157 61 376 123 525 148 14 2 34 6 45 9 11 2 47 7 79 11 33 3 69 8
80 11 12 3 136 7 276 8 342 4 568 -25 855 -110 766 -226 1357 -743 1655 -1450
72 -169 152 -433 175 -575 3 -19 10 -57 15 -85 5 -27 12 -72 15 -98 4 -27 8
-58 11 -70 9 -51 19 -278 18 -453 -1 -133 2 -191 10 -191 6 0 68 -3 137 -7
l127 -7 4 43 c6 65 2 391 -6 493 -11 133 -23 241 -31 285 -3 14 -7 41 -10 60
-55 354 -193 739 -374 1045 -320 543 -794 945 -1393 1184 -170 68 -301 107
-523 158 -30 6 -242 40 -300 48 -58 7 -570 17 -576 11z"/>
<path d="M3360 5972 c-156 -116 -194 -202 -192 -439 2 -298 71 -465 208 -503
25 -7 48 -10 51 -6 4 3 8 100 10 214 2 114 5 219 7 235 1 15 4 44 5 65 2 32 3
34 11 15 13 -32 28 -231 33 -453 l2 -75 35 -1 c103 -4 156 87 226 381 28 122
27 163 -7 286 -36 129 -88 206 -179 265 -51 34 -115 64 -133 64 -7 0 -41 -22
-77 -48z"/>
<path d="M4085 5169 c-307 -71 -534 -334 -533 -618 0 -47 2 -91 5 -98 5 -13
25 -19 21 -5 -3 12 24 84 50 132 73 133 162 207 294 247 45 13 198 27 198 18
0 -2 -26 -11 -57 -19 -32 -9 -71 -22 -88 -30 -16 -7 -43 -19 -60 -27 -141 -64
-220 -147 -269 -282 l-24 -67 26 -6 c15 -3 41 -9 57 -13 30 -8 287 -6 396 2
112 9 286 102 382 206 87 95 141 207 180 379 l15 63 -102 49 c-174 83 -331
105 -491 69z"/>
<path d="M2580 5169 c-85 -10 -186 -41 -287 -91 l-81 -40 15 -52 c54 -181 134
-309 262 -418 68 -58 213 -132 298 -154 35 -8 73 -18 85 -21 25 -6 376 -11
395 -5 11 3 -16 83 -59 169 -48 97 -166 181 -336 239 -52 18 -95 34 -97 36 -7
7 122 -3 172 -13 161 -32 297 -165 359 -351 17 -53 17 -53 25 -23 52 190 -81
482 -274 602 -162 102 -311 140 -477 122z"/>
<path d="M3645 3931 c-12 -21 -7 -173 9 -248 31 -148 133 -312 232 -373 66
-41 226 -268 298 -422 91 -196 121 -334 120 -543 l-1 -150 -47 -125 c-107
-284 -196 -409 -357 -499 -71 -40 -185 -78 -269 -92 -36 -5 -76 -12 -90 -14
-82 -15 -159 -5 -295 35 -448 132 -598 260 -685 586 -17 62 -21 105 -20 204 1
69 3 139 4 155 13 131 19 173 37 242 24 98 22 91 42 137 9 21 17 41 17 45 0 4
23 47 51 96 55 95 139 209 214 290 61 66 147 179 177 235 45 82 95 241 112
354 4 21 9 51 11 65 4 22 4 22 -6 -4 -123 -328 -316 -472 -786 -590 -172 -42
-226 -54 -438 -89 -342 -57 -759 -165 -960 -247 -16 -7 -35 -13 -41 -14 -6 -2
-64 -28 -129 -59 -138 -65 -285 -160 -286 -184 -5 -90 2 -128 34 -181 19 -31
39 -72 46 -91 86 -236 241 -521 406 -745 295 -400 741 -749 1200 -940 50 -20
104 -43 120 -50 42 -18 244 -80 342 -104 94 -24 284 -57 393 -68 99 -10 506
-10 595 0 310 36 610 113 833 213 29 13 55 24 58 24 12 0 233 114 312 161 75
45 226 145 257 171 6 5 37 30 70 56 107 84 284 252 391 372 205 229 419 590
534 900 15 41 38 94 50 118 12 23 23 59 25 80 2 37 6 49 47 144 26 62 25 65
-73 141 -126 97 -357 197 -519 223 -14 2 -45 9 -70 14 -25 6 -63 12 -85 15
-21 2 -73 9 -115 15 -85 11 -143 17 -250 25 -41 3 -88 8 -105 10 -16 2 -79 7
-140 11 -60 3 -132 8 -160 9 -27 2 -106 6 -175 10 -219 11 -249 17 -399 80
-132 54 -202 97 -297 181 -73 65 -167 226 -209 358 -13 39 -25 63 -30 57z"/>
</g>
</svg>
